<svg xmlns="http://www.w3.org/2000/svg" viewBox="0 0 100 100" width="100" height="100">
  <!-- Hood Outer Outline -->
  <path d="M 50 15 C 26 15 22 42 22 62 C 22 75 32 85 50 85 C 68 85 78 75 78 62 C 78 42 74 15 50 15 Z" fill="none" stroke="#ffffff" stroke-width="6" stroke-linejoin="round" stroke-linecap="round" />
  <!-- Cloak Collar Overlaps -->
  <path d="M 22 62 C 32 76 40 82 50 82 C 60 82 68 76 78 62" fill="none" stroke="#ffffff" stroke-width="6" stroke-linecap="round" />
  <!-- Inner Hood Shadow Area -->
  <path d="M 32 60 C 32 38 50 38 50 38 C 50 38 68 38 68 60" fill="none" stroke="#ffffff" stroke-width="6" stroke-linejoin="round" stroke-linecap="round" />
  <!-- Glowing Mysterious Eyes -->
  <polygon points="34,51 45,46 41,53" fill="#ffffff" />
  <polygon points="66,51 55,46 59,53" fill="#ffffff" />
</svg>
